<svg width="207" height="232" viewBox="0 0 207 232" fill="none" xmlns="http://www.w3.org/2000/svg">
<g filter="url(#filter0_d_96_243)">
<path d="M121.929 2.42398C120.868 5.60191 118.247 9.21074 115.564 10.9344C112.443 13.035 104.455 16.2668 95.4061 19.1216C75.2487 25.5313 67.1358 30.1635 63.1417 37.5427C59.8966 43.4677 60.0838 51.7087 63.641 58.5494C65.4508 62.1043 66.4493 61.9427 65.638 58.1723C64.9515 54.9944 65.7628 50.5776 67.5726 47.5613C68.9456 45.1913 74.687 40.182 78.1194 38.3507C79.3675 37.6505 84.6721 35.2805 89.8519 33.126C99.4001 28.9785 105.641 25.2081 109.011 21.3838C111.32 18.7984 110.633 18.8522 107.076 21.5993C103.831 24.077 99.837 25.9083 91.5993 28.8708C76.3096 34.2571 70.3185 37.9198 65.8252 44.4372C65.1388 45.4068 65.0763 45.299 65.3884 43.737C66.0749 40.0743 68.3839 36.6271 72.0659 33.6646C76.9337 29.8403 81.8638 27.4703 94.0955 23.3767C99.5874 21.4915 106.39 18.96 109.136 17.775C118.559 13.7352 123.801 8.34892 123.801 2.53171C123.801 -0.646218 122.928 -0.753944 121.929 2.42398Z" fill="black"/>
<path d="M138.155 0.43095C138.155 0.646403 138.904 3.82433 139.777 7.54088C141.525 14.8124 141.462 18.8521 139.652 23.8076C137.843 28.7091 130.042 33.6106 114.752 39.5356C110.321 41.3131 105.391 43.306 103.831 44.0601C91.3495 50.1466 81.8637 58.4954 76.6215 68.083C75.3734 70.3453 74.4997 72.3382 74.6869 72.5537C74.9365 72.7153 75.7478 71.4764 76.6215 69.8605C81.302 60.7577 91.8488 52.1396 105.703 46.1069C109.448 44.491 112.568 43.306 112.568 43.5215C112.568 43.7908 111.757 44.6526 110.696 45.5144C109.697 46.3762 108.948 47.1303 109.073 47.238C109.198 47.3457 110.945 46.5917 112.942 45.5144C117.061 43.4137 120.369 42.6058 121.492 43.5753C121.866 43.8985 122.74 44.1678 123.364 44.1678C124.238 44.1678 124.488 43.8985 124.238 43.1444C123.926 42.0133 124.3 41.9056 131.914 41.2053C136.782 40.7206 141.587 39.4817 142.586 38.4045C143.397 37.5965 143.334 37.5427 142.211 37.9736C141.525 38.189 140.152 38.5122 139.216 38.6738L137.468 38.8892L138.716 37.1117C140.713 34.3109 140.277 34.257 137.219 36.8963C135.721 38.2429 133.849 39.3201 133.162 39.3201C131.914 39.3201 131.914 39.3201 133.225 37.7042C134.036 36.8424 134.41 35.9268 134.098 35.7113C133.849 35.442 133.474 35.6036 133.287 36.0345C132.725 37.4349 129.917 39.3201 128.419 39.3201C125.923 39.3201 127.358 37.812 131.477 35.9806C136.22 33.9338 141.774 29.4093 144.146 25.6928C145.831 23.1073 145.956 22.5148 145.893 17.5056C145.831 13.0888 145.519 11.3652 144.146 8.07951C142.461 3.87819 139.84 4.52545e-05 138.779 4.52545e-05C138.404 4.52545e-05 138.155 0.161635 138.155 0.43095Z" fill="black"/>
<path d="M105.516 3.23185C103.207 3.82434 97.1534 4.74001 92.0984 5.38637C71.2545 7.9718 64.7018 10.8265 63.5784 17.7749L63.1416 20.1987L64.7018 17.5056C67.8221 11.9038 69.944 11.0959 88.8532 7.86408C99.4 6.03273 109.135 3.71661 110.384 2.63935C111.132 1.99299 110.633 2.04686 105.516 3.23185Z" fill="black"/>
<path d="M130.666 2.37011C130.666 2.5317 131.352 3.93214 132.226 5.38644C137.281 14.0045 136.407 21.7608 129.543 28.9246C123.552 35.1189 123.739 34.8496 126.173 33.6107C129.168 32.1564 135.222 26.5547 136.969 23.6999C138.155 21.7608 138.467 20.4143 138.467 16.9132C138.467 12.9273 138.28 12.2271 136.095 8.5105C134.036 4.95554 130.666 1.18512 130.666 2.37011Z" fill="black"/>
<path d="M109.759 7.64859C102.707 12.1731 98.7755 13.5735 85.6077 16.3744C69.8187 19.7139 66.1367 21.0605 63.4532 24.5616C62.2051 26.2314 61.4562 29.6247 62.0803 31.0252C62.5171 32.0486 62.5171 32.0486 62.954 30.9713C65.0134 26.2314 65.6999 25.3696 68.945 23.7537C70.8172 22.838 74.8737 21.5991 78.2437 20.9528C93.3461 17.9903 96.9657 17.0746 101.771 15.1356C107.138 12.9272 112.567 9.04903 114.252 6.30201C114.752 5.4402 115.064 4.68612 114.939 4.63225C114.814 4.52453 112.505 5.92497 109.759 7.64859Z" fill="black"/>
<path d="M126.36 8.61827C126.172 20.9529 119.869 28.6554 101.335 39.2125C81.0523 50.7392 72.4402 57.3105 68.0093 64.5821C65.0138 69.5375 63.2664 75.5701 63.3288 80.741C63.3912 85.2116 63.7656 84.6192 65.0762 78.1017C65.513 76.0549 66.9484 72.4999 68.6334 69.5375C73.0642 61.7273 77.9944 57.6876 96.4668 46.5379C117.436 33.8801 122.678 29.4633 126.297 21.2761C127.483 18.6368 127.733 17.1286 127.67 12.9273C127.608 10.1264 127.296 6.94852 126.984 5.92512C126.547 4.36309 126.422 4.79399 126.36 8.61827Z" fill="black"/>
<path d="M128.419 43.8987C126.672 45.6223 124.238 46.0532 120.431 45.4068C117.748 44.9221 117.498 44.9759 118.497 45.5684C119.121 45.9993 120.057 46.3225 120.494 46.3225C121.742 46.3225 121.492 47.3998 120.244 47.4536C119.558 47.4536 119.433 47.6152 119.932 47.7768C121.43 48.3155 129.917 46.2687 132.85 44.6528C136.158 42.8214 136.345 41.8519 133.1 43.5755C130.354 45.0298 129.231 45.0298 129.73 43.6294C130.229 42.2289 130.042 42.2828 128.419 43.8987Z" fill="black"/>
<path d="M141.649 54.402C138.342 62.6969 134.66 67.2753 126.797 72.9848C121.367 76.9706 119.058 78.3172 104.455 85.9119C87.7923 94.5839 86.6065 95.2841 82.5501 98.5159C78.3064 101.855 74.4372 107.08 74.562 109.396V110.689L75.2485 109.342C76.7463 106.218 77.932 104.602 80.6779 102.125C85.5456 97.708 88.666 95.9843 110.072 85.6426C128.232 76.8629 138.716 67.4907 142.211 56.9874C143.646 52.6245 143.21 50.47 141.649 54.402Z" fill="black"/>
<path d="M91.3495 73.6311C87.7923 75.4624 87.2931 76.1088 89.0405 76.6474C91.2247 77.3476 101.272 77.6708 105.703 77.1322C109.198 76.7013 108.511 76.6474 100.149 76.6474C94.9067 76.5936 90.351 76.3781 90.039 76.1088C89.0405 75.247 94.0954 74.1697 97.403 74.4929C99.3376 74.6545 101.085 74.4929 102.271 74.0081L104.143 73.254L102.271 73.5234C101.21 73.685 99.1504 73.4695 97.6526 72.9847C94.2826 71.9613 94.7195 71.9613 91.3495 73.6311Z" fill="#FF0000"/>
<path d="M86.6063 77.8322C85.6702 79.9329 90.7252 81.9258 96.7787 81.8181C99.5246 81.7642 99.6494 81.7104 97.902 81.2795C96.9035 81.0101 94.8441 80.5792 93.4087 80.2561C91.9733 79.9329 89.9139 79.0711 88.853 78.317C87.2304 77.132 86.9184 77.0243 86.6063 77.8322Z" fill="#FF0000"/>
<path d="M136.594 127.531C132.101 128.608 130.104 130.009 126.984 134.318C124.737 137.442 114.065 155.809 111.382 161.249C110.633 162.704 109.135 164.643 108.012 165.559C106.889 166.42 105.016 168.198 103.768 169.437C102.52 170.729 101.334 171.753 101.147 171.753C100.898 171.753 99.9615 172.399 99.0253 173.261L97.278 174.715L97.0907 173.476C96.7787 171.645 97.902 169.06 103.269 159.418C106.015 154.517 108.074 150.208 107.95 149.831C107.513 148.915 104.892 148.969 101.21 149.884C97.2155 150.962 95.4058 151.823 96.217 152.308C96.7163 152.578 96.0298 154.301 94.2824 157.533C91.7862 162.165 91.0373 163.566 88.2914 169.114C87.6673 170.514 86.7312 171.807 86.2319 172.076C85.6079 172.399 85.6079 172.238 86.2943 171.43C86.7936 170.891 86.3568 171.214 85.2334 172.13C84.1725 173.099 83.0492 173.907 82.6747 173.907C82.3627 173.907 81.6762 174.069 81.1146 174.231C79.6168 174.715 79.804 172.668 81.6138 168.198C83.8605 162.758 84.9214 160.657 87.6673 156.025C90.1636 151.77 90.7876 149.13 89.2275 149.13C88.7906 149.13 86.1695 149.777 83.486 150.531C78.4935 151.931 76.4965 152.901 78.3687 152.901C79.6792 152.901 79.4296 153.709 75.4355 162.327C71.7535 170.245 71.1919 173.907 73.2513 175.793C75.4355 177.785 78.9303 177.624 83.4236 175.308C86.9808 173.476 86.9808 173.476 86.9808 174.715C86.9808 176.277 90.2884 178.755 92.3478 178.755C96.2794 178.755 102.208 174.608 106.826 168.629C108.012 167.067 109.073 165.882 109.198 165.989C109.322 166.043 109.135 167.767 108.761 169.814C108.262 173.099 108.324 173.692 109.447 175.254C110.883 177.301 111.756 177.678 114.877 177.678C117.311 177.678 120.493 176.277 123.738 173.692C126.048 171.861 129.417 168.09 129.417 167.336C129.417 167.121 127.108 168.575 124.363 170.676C121.554 172.722 118.933 174.446 118.496 174.446C117.123 174.446 115.75 172.938 115.314 170.945C114.877 168.844 115.938 165.666 118.746 160.334C119.744 158.449 121.554 155.055 122.802 152.739C125.299 148.053 133.599 136.472 136.532 133.51C137.53 132.487 139.465 130.925 140.776 130.117C142.648 128.878 143.209 128.716 143.459 129.363C143.709 129.793 143.771 130.332 143.709 130.601C143.521 131.679 143.833 131.894 145.019 131.355C145.831 130.978 146.267 130.224 146.267 129.255C146.267 127.962 145.893 127.585 144.333 127.1C141.899 126.346 141.275 126.4 136.594 127.531Z" fill="#FF0000"/>
<path d="M62.0183 128.716C58.0242 130.817 53.0941 135.126 51.9708 137.55C51.8459 137.819 50.7226 139.435 49.4745 141.051C48.2263 142.667 45.6677 146.06 43.8579 148.592C41.9857 151.123 39.3646 154.624 37.9292 156.402C36.5563 158.179 34.3096 161.357 32.9991 163.512C31.7509 165.612 30.0035 168.036 29.1298 168.844C27.32 170.676 27.7569 169.868 30.69 165.936C35.4953 159.364 39.0525 151.393 41.6736 141.32C43.7331 133.241 43.9827 131.625 43.5458 130.601C43.109 129.578 40.5503 129.47 36.8059 130.332C30.8772 131.679 29.1922 132.11 27.6945 132.756C23.2012 134.641 19.0823 136.149 17.5846 136.419C15.7748 136.796 15.2755 137.55 16.6485 137.981C17.0229 138.088 16.7733 138.088 15.962 137.981C14.277 137.765 10.1582 139.489 6.66336 141.967C4.04228 143.798 3.3558 144.983 4.60394 145.629C5.41523 146.06 12.1552 143.044 16.7733 140.243C21.8282 137.173 26.4463 135.126 28.2561 135.126H29.7539L29.3795 141.536C28.7554 151.5 24.8862 163.781 19.5192 172.938C18.2086 175.092 17.959 177.409 18.9575 177.947C20.1433 178.54 23.7004 176.708 27.3825 173.53C32.1254 169.437 32.3126 169.275 38.6781 161.088C41.6112 157.318 44.2323 154.14 44.4819 153.978C45.2308 153.439 47.5399 150.423 48.8504 148.107C49.5993 146.814 50.3482 145.899 50.5354 146.006C50.6602 146.168 50.5354 150.477 50.2858 155.648C49.9113 162.327 50.0361 166.313 50.5354 169.598C51.4091 174.661 52.5948 178.755 53.3437 179.509C54.4046 180.533 57.1505 178.055 59.0227 174.554C60.0212 172.561 61.1446 170.568 61.4566 170.137C61.7686 169.706 63.0168 167.767 64.2025 165.828C65.3882 163.889 67.198 161.088 68.259 159.634C69.2575 158.126 70.3184 156.563 70.568 156.133C71.0673 155.163 77.0583 147.676 79.929 144.39C84.0479 139.704 94.1578 133.51 97.6526 133.51C98.8383 133.51 100.711 131.571 100.711 130.332C100.711 129.201 98.7759 128.178 96.6541 128.124C94.7819 128.124 91.3495 129.47 88.7284 131.194C84.4223 134.156 75.3733 142.721 70.9425 148.053C66.2619 153.763 64.9514 155.702 62.5799 160.172C61.7686 161.627 61.7062 161.088 61.519 153.978C61.3942 149.184 61.6438 145.306 62.0807 143.906C62.4551 142.667 62.8296 140.297 62.892 138.681C62.892 137.065 63.0792 135.88 63.204 135.988C63.516 136.257 66.3868 129.309 66.3868 128.231C66.3868 127.262 64.4521 127.477 62.0183 128.716ZM40.1759 131.356C38.9277 132.056 36.2442 132.056 36.7435 131.356C36.9307 131.032 38.054 130.817 39.1149 130.817C40.6127 130.817 40.8623 130.978 40.1759 131.356ZM98.8383 131.571C98.3391 132.002 97.2157 132.487 96.3421 132.702L94.7819 133.025L96.3421 131.948C98.2143 130.655 100.336 130.332 98.8383 131.571ZM42.4849 134.156C42.2977 134.587 42.1105 134.426 42.1105 133.833C42.0481 133.241 42.2353 132.918 42.4225 133.133C42.6097 133.295 42.6721 133.779 42.4849 134.156ZM39.2398 135.126C38.9901 135.772 38.6781 136.149 38.4909 136.042C38.3037 135.88 38.3661 135.234 38.6157 134.587C38.8653 133.941 39.1774 133.564 39.3646 133.672C39.5518 133.833 39.4894 134.48 39.2398 135.126ZM63.3288 134.749C62.7047 135.234 62.6423 135.18 63.0168 134.426C63.204 133.887 63.5784 133.618 63.7657 133.779C63.9529 133.941 63.7657 134.372 63.3288 134.749ZM84.8592 137.065C80.7403 140.297 78.6809 141.051 81.9885 138.088C83.1742 137.065 84.4847 136.203 84.8592 136.203C85.296 136.203 86.1697 135.611 86.7938 134.911C87.4179 134.21 88.0419 133.726 88.2292 133.887C88.4164 134.049 86.8562 135.449 84.8592 137.065ZM33.1239 139.812C32.9991 140.674 32.8743 140.081 32.8743 138.627C32.8743 137.119 32.9991 136.473 33.1239 137.119C33.2487 137.819 33.2487 139.004 33.1239 139.812ZM36.8683 140.081C36.6811 140.512 36.4939 140.351 36.4939 139.758C36.4314 139.166 36.6187 138.843 36.8059 139.058C36.9931 139.22 37.0555 139.704 36.8683 140.081ZM39.3022 142.936C38.9277 144.229 36.4314 148.161 36.4314 147.461C36.4314 146.276 38.4909 141.59 38.9901 141.59C39.427 141.59 39.5518 142.128 39.3022 142.936ZM50.785 142.02C50.785 142.613 45.8549 149.13 45.418 149.13C45.2308 149.13 45.6677 148.215 46.479 147.084C47.2278 146.006 48.4136 144.283 49.0376 143.313C50.2858 141.59 50.785 141.212 50.785 142.02ZM7.72428 143.744C7.72428 144.013 7.16262 144.498 6.47614 144.821C5.47763 145.252 5.22801 145.252 5.22801 144.606C5.22801 143.906 6.0393 143.367 7.28743 143.259C7.53706 143.205 7.72428 143.421 7.72428 143.744ZM77.2455 146.168C76.6839 146.922 75.935 147.514 75.5606 147.514C75.1861 147.514 75.5606 146.922 76.3718 146.168C77.1831 145.414 77.932 144.821 78.0568 144.821C78.1816 144.821 77.8072 145.414 77.2455 146.168ZM39.2398 148.053C38.9901 148.969 38.6781 149.615 38.4909 149.454C38.3037 149.346 38.3661 148.43 38.6157 147.514C38.8653 146.599 39.1774 145.952 39.3646 146.114C39.5518 146.222 39.4894 147.137 39.2398 148.053ZM57.6498 151.446C57.6498 152.416 57.7746 154.517 57.8994 156.133L58.149 159.095L57.7122 156.402C57.4002 154.301 57.2129 153.978 56.9009 155.055C56.7137 155.809 56.5265 154.732 56.4641 152.739C56.4641 150.423 56.6513 149.184 57.0257 149.4C57.3378 149.561 57.6498 150.477 57.6498 151.446ZM32.3126 155.809C31.6885 157.479 31.1269 158.718 30.9396 158.61C30.8148 158.503 31.1893 157.048 31.8133 155.378C32.4374 153.709 32.9991 152.47 33.1863 152.578C33.3111 152.685 32.9367 154.14 32.3126 155.809ZM36.4939 154.355C35.745 155.432 35.6202 155.109 36.1818 153.709C36.4314 153.224 36.7435 152.955 36.8683 153.116C37.0555 153.224 36.8683 153.816 36.4939 154.355ZM33.6231 156.456L32.687 158.556L33.0615 156.671C33.4983 154.624 33.9352 153.763 34.3096 154.14C34.4344 154.247 34.1224 155.271 33.6231 156.456ZM53.7182 159.203C53.5933 160.334 53.4685 159.526 53.4685 157.479C53.4685 155.378 53.5933 154.517 53.7182 155.432C53.843 156.402 53.843 158.126 53.7182 159.203ZM67.4477 158.772C66.0123 160.549 64.577 162.004 64.3273 162.004C64.0153 162.058 65.0138 160.603 66.4492 158.826C67.8845 157.048 69.3199 155.594 69.5695 155.594C69.8815 155.594 68.9454 157.048 67.4477 158.772ZM60.5205 165.666C60.1461 167.121 60.1461 167.121 61.0822 166.151C62.5799 164.481 62.1431 165.882 60.4581 168.252C59.5844 169.491 58.8979 170.029 58.8979 169.491C58.8979 169.006 59.21 168.413 59.522 168.252C59.8964 168.09 59.9588 167.336 59.7716 166.636C59.5844 165.936 59.5844 165.074 59.834 164.805C60.5829 163.727 60.8949 164.212 60.5205 165.666ZM23.5756 169.598C22.6395 171.376 21.7658 172.722 21.641 172.615C21.3914 172.399 23.0764 168.144 24.0749 166.474C25.6351 163.835 25.2606 166.528 23.5756 169.598ZM53.2189 172.83C53.2189 173.584 52.7821 172.884 52.3452 171.214C51.2219 167.336 51.2219 165.936 52.4076 169.06C52.8445 170.406 53.2189 172.076 53.2189 172.83ZM56.152 177.786C55.0911 178.378 54.3422 177.355 54.8415 176.062L55.2783 174.877L56.0272 176.116C56.5265 177.031 56.5889 177.516 56.152 177.786Z" fill="#FF0000"/>
<path d="M147.515 148.538C138.217 151.016 128.981 161.734 130.041 168.844C131.04 175.793 138.466 179.832 147.453 178.27C151.509 177.57 159.185 175.146 159.747 174.338C160.621 173.153 159.185 173.315 154.63 174.985C146.517 177.893 140.463 177.839 136.532 174.823L134.285 173.153L134.535 169.06C134.909 163.997 137.78 158.395 142.46 153.924C147.64 148.915 153.319 147.891 157.625 151.231C159.185 152.416 159.622 153.224 159.872 155.54C160.434 160.98 156.876 168.521 153.694 168.521C152.133 168.521 152.196 167.39 154.068 162.596C154.942 160.442 155.628 158.61 155.628 158.502C155.628 158.449 154.567 158.61 153.319 158.88C151.884 159.149 150.698 159.095 150.386 158.826C148.451 157.156 143.084 159.149 140.963 162.327C137.405 167.498 140.651 171.268 146.579 168.952C147.765 168.467 148.327 168.467 148.888 168.952C149.887 169.814 154.068 169.76 156.128 168.844C161.807 166.259 165.177 159.041 162.867 154.247C162.306 153.062 161.37 151.662 160.746 151.069C158.187 148.592 151.884 147.407 147.515 148.538ZM149.762 159.634C149.949 160.065 149.45 162.165 148.639 164.32C147.391 167.444 146.829 168.306 145.768 168.413C144.582 168.575 144.395 168.359 144.395 166.797C144.52 162.434 148.576 156.94 149.762 159.634Z" fill="#FF0000"/>
<path d="M172.728 150.962C170.294 151.985 168.11 153.17 167.923 153.709C167.548 154.409 167.735 154.517 168.921 154.193C169.67 154.032 170.669 153.601 171.168 153.278C171.792 152.793 172.229 152.901 172.853 153.709C173.352 154.247 173.727 155.109 173.664 155.54C173.664 156.186 173.539 156.186 173.29 155.702C173.102 155.217 172.728 155.378 172.229 156.24C171.792 156.94 170.918 158.179 170.232 159.095C169.608 159.957 169.42 160.495 169.857 160.28C170.294 160.011 170.606 160.118 170.606 160.657C170.606 161.142 170.169 161.519 169.67 161.519C169.171 161.519 168.484 162.057 168.11 162.704C167.423 163.889 167.486 163.889 168.36 162.919C168.921 162.327 169.358 162.057 169.358 162.381C169.358 162.65 168.734 163.458 167.923 164.212C167.174 164.966 166.862 165.235 167.174 164.751C167.735 164.05 167.673 164.05 166.675 164.697C165.302 165.612 163.492 168.521 163.991 168.952C164.178 169.114 164.365 169.006 164.365 168.736C164.365 168.413 164.802 167.713 165.302 167.121C166.05 166.313 166.05 166.528 165.239 168.09C164.615 169.167 163.929 169.975 163.679 169.868C163.055 169.491 162.431 171.214 162.93 171.861C163.117 172.184 162.993 172.291 162.681 172.13C162.306 171.914 161.682 172.507 161.183 173.423C159.685 176.6 162.681 178.055 166.799 176.223C168.484 175.415 169.171 174.608 170.294 171.914C171.043 170.083 171.667 168.467 171.605 168.413C171.605 168.306 171.667 168.306 171.792 168.359C171.917 168.467 173.102 167.013 174.413 165.128C175.661 163.296 177.409 160.872 178.157 159.741C179.218 158.287 180.654 157.264 183.524 156.132C189.827 153.547 190.576 154.14 187.768 159.095C185.958 162.273 185.709 163.727 187.456 160.98C188.143 159.957 188.642 159.418 188.704 159.795C188.704 160.226 189.016 160.334 189.515 160.118C189.89 159.957 189.453 160.442 188.392 161.303C187.394 162.165 186.333 162.812 186.021 162.704C185.771 162.65 185.272 163.242 184.96 163.997C184.585 164.751 183.212 167.067 181.839 169.06C178.657 173.746 178.469 176.17 181.153 177.139C182.588 177.624 183.524 177.624 185.272 177.139C190.389 175.685 195.569 172.399 198.128 168.952C199.189 167.551 200.312 166.366 200.624 166.366C200.936 166.366 201.56 165.612 202.122 164.751C202.683 163.835 202.995 163.135 202.808 163.135C202.683 163.135 200.686 165.074 198.377 167.39C195.819 169.921 193.073 172.076 191.512 172.776C187.269 174.608 186.645 174.231 188.392 171.053C189.266 169.491 189.266 169.437 188.392 170.352C187.082 171.807 187.269 170.837 188.704 168.521C189.391 167.498 189.89 167.013 189.952 167.444C189.952 167.875 190.639 167.336 191.512 166.259C193.197 164.104 193.447 163.404 192.324 163.997C191.887 164.212 191.825 164.158 192.074 163.727C192.324 163.404 192.761 163.242 192.948 163.35C193.197 163.458 194.071 162.704 194.882 161.68C195.631 160.657 196.006 159.957 195.631 160.172C195.257 160.334 194.945 160.334 194.945 160.064C194.945 159.418 196.193 157.964 196.193 158.556C196.255 159.687 199.937 153.924 199.937 152.739C199.937 149.992 197.379 149.561 191.825 151.285C189.952 151.877 187.893 152.362 187.331 152.362C186.707 152.362 186.208 152.578 186.208 152.847C186.208 153.278 182.339 155.163 182.027 154.84C181.964 154.786 182.214 153.87 182.588 152.739C184.024 148.699 179.967 147.945 172.728 150.962ZM172.166 158.341C171.605 159.257 170.981 159.903 170.793 159.741C170.481 159.472 172.354 156.671 172.853 156.671C173.04 156.671 172.666 157.425 172.166 158.341ZM194.57 161.249C194.321 161.68 194.071 162.057 193.946 162.057C193.822 162.057 193.697 161.68 193.697 161.249C193.697 160.819 193.946 160.442 194.321 160.442C194.633 160.442 194.758 160.819 194.57 161.249ZM175.037 163.296C174.413 163.781 174.351 163.727 174.725 162.973C174.912 162.434 175.287 162.165 175.474 162.327C175.661 162.488 175.474 162.919 175.037 163.296ZM171.792 164.751C171.043 165.936 170.294 166.797 170.169 166.69C169.92 166.474 172.478 162.596 172.915 162.596C173.04 162.596 172.541 163.566 171.792 164.751ZM189.703 164.104C188.579 164.966 188.579 164.966 189.328 163.781C189.703 163.081 190.202 162.65 190.452 162.812C190.639 163.027 190.327 163.566 189.703 164.104ZM167.236 169.706C166.113 171.106 165.863 170.622 166.924 168.952C167.299 168.359 167.735 168.036 167.923 168.144C168.11 168.306 167.798 169.006 167.236 169.706ZM168.984 169.814C168.609 170.676 167.486 171.053 167.486 170.245C167.486 169.706 168.859 168.467 169.171 168.736C169.296 168.844 169.233 169.329 168.984 169.814ZM183.774 171.591C183.025 172.668 182.9 172.345 183.462 170.945C183.712 170.46 184.024 170.191 184.148 170.352C184.336 170.46 184.148 171.053 183.774 171.591ZM164.865 174.5C164.116 175.631 163.429 176.493 163.242 176.385C163.117 176.277 163.367 175.577 163.866 174.877C164.303 174.231 164.74 173.369 164.74 173.099C164.802 172.776 164.865 172.345 164.927 172.13C164.927 171.861 165.302 171.861 165.614 172.022C166.05 172.238 165.738 173.153 164.865 174.5ZM181.839 175.793C182.276 176.223 182.339 176.6 181.964 176.6C181.652 176.6 181.028 176.223 180.591 175.793C180.154 175.362 180.092 174.985 180.466 174.985C180.778 174.985 181.403 175.362 181.839 175.793ZM186.208 176.062C186.208 176.331 185.584 176.6 184.835 176.547C183.462 176.547 183.462 176.493 184.648 176.062C185.334 175.793 185.958 175.577 186.083 175.577C186.145 175.523 186.208 175.739 186.208 176.062Z" fill="#FF0000"/>
<path d="M18.1465 188.666C12.405 190.066 8.97266 193.406 8.97266 197.607C8.97266 198.954 9.4095 200.57 9.90876 201.162C10.408 201.701 10.8449 201.916 10.8449 201.539C10.8449 201.216 10.5952 200.731 10.2208 200.57C9.3471 200.085 9.47191 197.769 10.4704 196.099C11.6562 194.16 15.6502 190.982 18.3337 189.743C21.454 188.343 27.5075 188.343 28.6932 189.743C30.1286 191.467 29.7541 193.621 27.5699 195.722C25.9473 197.338 25.7601 197.769 26.509 198.2C27.0082 198.469 27.5699 198.684 27.8195 198.684C28.6932 198.684 29.0053 200.947 28.3188 202.67C27.9443 203.64 27.0082 204.932 26.2594 205.579C24.4496 207.033 19.5818 208.057 16.6487 207.572L14.2772 207.195L16.4615 206.441C19.0202 205.471 21.2668 203.801 22.3901 201.862C23.3262 200.354 26.509 189.959 26.197 189.635C26.0721 189.528 24.9488 189.797 23.7631 190.228C21.454 191.09 21.142 191.628 18.6457 199.492C17.2104 203.801 15.9622 205.579 13.4035 206.764L11.2193 207.679L15.4006 208.057C19.7066 208.487 25.5729 208.057 28.3188 207.195C31.0023 206.333 33.3113 204.017 33.3113 202.239C33.3113 199.977 32.8121 199.438 29.6917 198.253C27.0082 197.23 27.0082 197.23 28.7556 196.907C29.7541 196.745 31.3143 196.099 32.2504 195.453C34.5595 193.891 34.4347 190.982 32.0008 189.42C29.879 188.073 22.3277 187.642 18.1465 188.666Z" fill="black"/>
<path d="M129.667 188.666C127.421 189.528 125.673 191.413 125.673 193.029C125.673 193.621 126.422 195.399 127.234 197.015C128.482 199.277 128.669 200.031 128.045 200.408C127.421 200.731 127.546 200.839 128.357 200.839C130.229 200.839 129.792 204.394 127.608 206.279C125.798 207.787 125.798 207.841 127.171 207.841C129.48 207.841 132.788 205.579 133.474 203.64C133.973 202.185 134.348 201.862 135.471 202.078C137.281 202.347 137.343 202.024 135.596 201.431C134.66 201.162 133.537 199.654 132.164 196.745C129.73 191.736 129.667 191.143 131.228 189.474C132.351 188.289 132.538 188.235 133.474 189.043C134.41 189.851 134.41 190.12 133.537 191.898C132.538 194.052 132.788 194.268 134.91 192.975C136.907 191.79 136.782 189.151 134.66 188.45C132.663 187.75 132.039 187.804 129.667 188.666Z" fill="black"/>
<path d="M161.432 188.827C160.309 188.989 159.623 190.336 157.189 196.853C155.629 201.162 154.38 205.363 154.505 206.117C154.692 207.464 154.942 207.572 157.813 207.679C159.56 207.733 160.434 207.626 159.872 207.464C158.187 207.087 158.437 205.687 161.807 196.638C165.052 187.966 165.052 188.235 161.432 188.827Z" fill="black"/>
<path d="M89.7894 191.521C87.7924 191.951 87.1683 192.598 86.357 195.183C85.9202 196.53 85.1713 197.607 84.7345 197.607C83.7359 197.607 83.5487 198.523 84.4848 198.792C84.9217 198.9 84.7969 199.815 84.1104 201.378C82.9247 204.286 82.8623 206.764 83.9856 207.356C85.2961 208.11 88.7909 207.895 90.7879 206.979C92.2857 206.333 92.9098 206.279 93.5962 206.818C94.1579 207.195 95.5933 207.356 97.3406 207.141C100.711 206.818 100.773 207.68 97.4031 209.08C94.6572 210.211 94.2827 211.935 96.6542 212.473C98.9008 212.958 101.522 211.989 102.895 210.157C103.644 209.134 105.204 208.11 106.764 207.572C108.199 207.087 109.635 206.387 110.009 206.01C110.384 205.579 109.385 205.848 107.763 206.548C106.202 207.249 104.767 207.787 104.705 207.68C104.58 207.626 105.391 205.148 106.452 202.293C107.513 199.385 108.262 196.907 108.075 196.799C107.887 196.638 106.889 196.691 105.828 196.853C104.018 197.176 103.769 197.499 102.396 201.324C101.335 204.502 100.586 205.579 99.3377 206.225C98.4016 206.656 97.4655 206.818 97.2158 206.602C96.9662 206.387 97.5279 204.125 98.4016 201.539C99.2753 198.954 99.8993 196.745 99.7745 196.584C99.5873 196.476 98.5888 196.584 97.4655 196.853C95.5308 197.338 95.2812 197.661 94.0955 201.378C92.9098 204.986 92.5353 205.525 90.5383 206.495C87.1059 208.11 86.6067 207.249 88.2292 202.563C89.2278 199.708 89.9142 198.684 90.9127 198.415C92.0985 198.092 92.1609 197.984 91.2248 197.769C89.8518 197.499 89.8518 197.876 91.2872 194.214C92.5353 191.036 92.5353 190.982 89.7894 191.521ZM99.0256 209.996C98.5888 211.504 97.091 212.473 96.2173 211.719C95.406 211.019 96.0925 210.049 97.8399 209.457C98.5264 209.188 99.2129 208.972 99.2753 208.972C99.2753 208.918 99.2129 209.403 99.0256 209.996Z" fill="black"/>
<path d="M172.79 195.991C172.541 196.314 172.728 196.476 173.227 196.422C174.226 196.207 174.725 200.193 173.789 201C173.352 201.377 173.04 200.839 172.728 199.277C172.229 196.53 171.418 196.153 168.734 197.338C166.425 198.361 164.49 200.893 163.991 203.694C163.741 204.879 162.993 206.064 162.244 206.494C161.557 206.925 161.245 207.302 161.62 207.302C161.932 207.302 162.556 207.033 162.993 206.656C163.554 206.171 163.991 206.225 164.865 206.925C165.551 207.464 167.049 207.841 168.672 207.841C170.918 207.841 171.73 207.518 173.664 205.848C175.1 204.609 176.472 203.855 177.471 203.909C178.844 203.909 178.906 203.909 177.596 203.694C176.348 203.478 176.223 203.263 176.597 200.623C176.847 198.846 176.722 197.338 176.285 196.638C175.536 195.399 173.477 195.022 172.79 195.991ZM173.04 202.078C174.351 203.209 171.355 207.302 169.171 207.302C168.048 207.302 167.985 207.033 168.297 204.717C168.484 203.263 169.296 200.947 170.107 199.546L171.542 196.961L171.979 199.277C172.229 200.516 172.728 201.808 173.04 202.078Z" fill="black"/>
<path d="M39.3647 197.499C36.1195 199.223 33.9353 205.471 35.9323 207.195C36.3691 207.572 38.2413 207.787 40.488 207.787C43.4835 207.733 43.7956 207.626 42.0482 207.356C40.2384 207.087 39.8015 206.764 39.6767 205.579C39.4895 204.34 39.8639 203.963 42.0482 202.993C45.0437 201.701 46.7287 199.061 45.6678 197.446C45.1061 196.53 44.8565 196.745 43.6707 199.008C42.1106 201.916 40.176 203.747 40.176 202.347C40.176 201.916 40.8624 200.408 41.6737 199.061C42.9219 196.907 42.9843 196.53 42.1106 196.53C41.5489 196.53 40.3008 196.961 39.3647 197.499Z" fill="black"/>
<path d="M51.4715 198.092C49.4121 199.762 47.6647 202.724 47.6647 204.556C47.6647 205.202 46.9158 206.01 45.9797 206.441C44.9812 206.872 44.482 207.249 44.7316 207.303C45.0436 207.303 45.8549 207.033 46.5414 206.71C47.6023 206.225 47.9767 206.279 48.4136 206.979C49.0377 208.003 52.7197 208.164 54.6543 207.249C55.528 206.818 56.0896 206.818 56.5889 207.249C57.5874 208.11 61.1446 208.003 63.204 207.033C64.8266 206.333 65.0762 206.333 65.7627 207.033C66.1996 207.464 67.5725 207.841 68.7582 207.841C70.6928 207.841 70.8801 207.733 69.944 207.141C68.9455 206.548 69.0079 206.171 70.7553 201.701C71.7538 199.061 72.5651 196.799 72.4402 196.745C72.3778 196.691 71.3169 196.799 70.1312 196.961C68.0718 197.338 67.8845 197.553 66.262 201.647C64.8266 205.363 64.3273 206.064 62.6424 206.656C61.0198 207.249 60.7077 207.195 60.3333 206.441C60.0213 205.74 61.4566 201.054 63.0168 197.338C63.204 197.015 61.3318 196.745 58.3363 196.691C53.6558 196.584 53.2813 196.638 51.4715 198.092ZM58.2739 197.715C58.2739 198.092 57.7122 199.708 57.0257 201.27C56.3393 202.832 55.7776 204.556 55.7776 205.148C55.7776 206.279 53.6558 207.572 52.6573 207.033C51.2843 206.333 52.5324 201.431 54.7791 198.415C55.84 197.015 58.2739 196.53 58.2739 197.715Z" fill="black"/>
<path d="M78.1816 196.907C76.8086 197.068 76.3718 197.661 75.2485 200.785C74.4996 202.778 73.8755 204.771 73.8755 205.256C73.8755 205.687 73.2514 206.333 72.5025 206.656C71.1296 207.249 71.1296 207.249 72.6898 206.979C73.6259 206.818 74.562 206.925 74.7492 207.249C74.9988 207.572 76.247 207.841 77.4951 207.841C79.4921 207.841 79.6169 207.787 78.6184 207.141C77.6199 206.494 77.6199 206.171 79.4297 201.647C80.4906 199.061 81.3643 196.799 81.3643 196.691C81.3643 196.53 80.8651 196.53 78.1816 196.907Z" fill="black"/>
<path d="M139.902 198.738C138.155 200.3 137.593 201.216 137.843 201.97C138.092 202.562 137.967 202.993 137.593 202.993C136.657 202.993 136.719 206.387 137.655 207.195C138.592 208.003 142.211 208.057 143.896 207.249C144.77 206.818 145.331 206.818 145.831 207.249C146.205 207.572 147.266 207.841 148.202 207.841C149.95 207.841 154.006 206.764 153.569 206.441C153.444 206.279 152.633 206.441 151.759 206.71C148.889 207.626 148.452 206.71 150.012 202.94C150.761 201.054 151.572 198.9 151.822 198.146L152.321 196.799L147.329 196.691L142.274 196.53L139.902 198.738ZM147.204 197.553C147.391 197.823 146.954 199.331 146.268 200.839C145.581 202.347 144.957 204.232 144.895 204.986C144.707 206.387 142.96 207.572 141.899 207.033C139.84 205.956 143.147 197.068 145.581 197.068C146.268 197.068 146.954 197.284 147.204 197.553Z" fill="black"/>
<path d="M185.084 197.122C183.961 197.284 182.962 197.553 182.838 197.661C181.839 198.846 179.905 204.34 180.092 205.74C180.279 207.356 180.466 207.572 182.151 207.572C183.649 207.572 183.961 207.356 183.836 206.548C183.711 206.01 183.899 205.687 184.148 205.848C184.46 206.01 185.646 204.663 186.707 202.832C187.768 201 189.141 198.9 189.765 198.146C190.701 196.907 190.701 196.853 189.765 197.607C189.203 198.092 187.768 200.031 186.52 201.916C185.334 203.855 184.335 205.256 184.335 205.094C184.335 204.932 185.022 202.993 185.896 200.839C186.769 198.684 187.393 196.853 187.269 196.799C187.206 196.745 186.208 196.907 185.084 197.122Z" fill="black"/>
<path d="M191.325 196.799C191.575 197.015 191.2 198.415 190.451 199.977C188.267 204.663 188.142 205.471 189.141 206.71C189.765 207.518 190.701 207.841 192.261 207.841C194.321 207.841 194.445 207.787 193.385 207.141C192.324 206.441 192.324 206.225 193.946 202.562C196.068 197.769 195.943 196.853 193.073 196.638C191.887 196.53 191.075 196.584 191.325 196.799Z" fill="black"/>
<path d="M124.113 200.031C123.801 200.139 122.74 200.354 121.804 200.516C119.433 201 118.185 202.293 118.185 204.34C118.185 206.441 119.62 207.518 123.177 208.057C124.363 208.218 124.925 208.218 124.425 208.057C122.615 207.41 121.305 206.064 121.305 204.879C121.305 203.263 123.614 200.839 125.112 200.839C125.736 200.839 126.297 200.57 126.297 200.3C126.297 199.762 125.361 199.654 124.113 200.031Z" fill="black"/>
<path d="M195.943 206.495C195.257 206.925 194.945 207.302 195.319 207.302C195.631 207.302 196.443 206.925 197.067 206.495C197.753 206.064 198.065 205.687 197.691 205.687C197.379 205.687 196.568 206.064 195.943 206.495Z" fill="black"/>
<path d="M80.4285 214.359C45.6054 215.167 22.8269 217.429 15.2757 220.768C10.4703 222.869 11.1568 224.269 15.9621 222.276C21.5164 219.96 29.5044 218.614 44.2325 217.536C48.3513 217.213 73.9381 216.729 101.023 216.459C151.011 215.974 168.984 215.597 170.482 214.843C171.418 214.466 127.296 213.712 108.574 213.874C102.021 213.928 89.3526 214.143 80.4285 214.359Z" fill="#FF0000"/>
</g>
<defs>
<filter id="filter0_d_96_243" x="0" y="0" width="206.863" height="231.238" filterUnits="userSpaceOnUse" color-interpolation-filters="sRGB">
<feFlood flood-opacity="0" result="BackgroundImageFix"/>
<feColorMatrix in="SourceAlpha" type="matrix" values="0 0 0 0 0 0 0 0 0 0 0 0 0 0 0 0 0 0 127 0" result="hardAlpha"/>
<feOffset dy="4"/>
<feGaussianBlur stdDeviation="2"/>
<feComposite in2="hardAlpha" operator="out"/>
<feColorMatrix type="matrix" values="0 0 0 0 0 0 0 0 0 0 0 0 0 0 0 0 0 0 0.25 0"/>
<feBlend mode="normal" in2="BackgroundImageFix" result="effect1_dropShadow_96_243"/>
<feBlend mode="normal" in="SourceGraphic" in2="effect1_dropShadow_96_243" result="shape"/>
</filter>
</defs>
</svg>
